# xmcd
#
# Track frame offsets:
#	150
#	18489
#	32232
#	54858
#	76197
#	97501
#	115500
#	132560
#	154289
#	176416
#	199199
#	213685
#	234565
#	252556
#	271622
#	289850
#
# Disc length: 4098 seconds
#
# Revision: 112582053
# Processed by: cddbd v1.5.1PL0 Copyright (c) Steve Scherf et al.
# Submitted via: EasyCDDAExtractor 8.0.2.1
#
DISCID=d6100010
DTITLE=Various Artist - Rhyme and Reason
DYEAR=1997
DGENRE=Rap
TTITLE0=Mack 10 - Nothin' But The Cavi Hit (Featuring Tha Dogg Pound)
TTITLE1=Busta Rhymes - Wild Hot (Featuring A Tribe Called Quest)
TTITLE2=Eight Ball and MJG - Reason For Rhyme
TTITLE3=Ras Kass - Uni-4-Orm (Featuring Heltah Skeltah and Canibus)
TTITLE4=Crucial Conflict - Bogus Mayn
TTITLE5=E-40 - Every Year
TTITLE6=The RZA - Tragedy
TTITLE7=MC Eiht - Represent
TTITLE8=Lost Boyz - Niggaz Don't Want It
TTITLE9=KRS-ONE - Bring It Back
TTITLE10=Master P. - Is There A Heavon 4 A Gangsta?
TTITLE11=Volume 10 - Liquor Store Run
TTITLE12=Guru - The Way It Iz (Featuring Kai, Bee and Lil' Dap)
TTITLE13=Nyoo and DeCoca - Business First
TTITLE14=Delinquent Habits - No Identity
TTITLE15=Mack 10 - Nothin' But The Cavi Hit (Remix)
EXTD=YEAR: 1997 ID3G: 15
EXTT0=
EXTT1=
EXTT2=
EXTT3=
EXTT4=
EXTT5=
EXTT6=
EXTT7=
EXTT8=
EXTT9=
EXTT10=
EXTT11=
EXTT12=
EXTT13=
EXTT14=
EXTT15=
PLAYORDER=
